
<svg version="1.0" xmlns="http://www.w3.org/2000/svg"
 width={w} height={h} viewBox="0 0 1000.000000 1000.000000"
 preserveAspectRatio="xMidYMid meet" class="css-1j8o68f">

<g transform="translate(0.000000,1000.000000) scale(0.100000,-0.100000)"
fill="#000000" stroke="none">
<path d="M4900 7275 c-211 -47 -402 -219 -468 -420 -29 -88 -36 -135 -20 -135
8 0 20 29 30 73 28 114 72 191 163 283 131 131 278 191 446 182 178 -10 258
-86 337 -324 31 -92 56 -198 68 -290 l6 -52 -51 -11 c-91 -19 -136 -53 -166
-123 -45 -110 15 -208 128 -208 55 0 93 27 107 78 5 20 10 84 10 140 l0 104
73 -6 c39 -3 130 -8 200 -12 83 -4 130 -10 132 -18 6 -17 33 -357 51 -636 8
-135 18 -463 21 -730 5 -437 4 -487 -10 -502 -13 -13 -51 -17 -184 -23 -271
-13 -1292 7 -1650 31 l-93 6 0 236 c0 309 18 783 50 1357 15 253 12 241 65
254 69 17 202 13 288 -8 80 -21 163 -58 152 -69 -3 -3 -27 -18 -52 -32 -64
-35 -88 -70 -88 -130 0 -57 21 -85 76 -102 32 -9 46 -8 85 7 78 30 104 104 68
195 -9 23 -15 43 -12 45 11 11 155 25 266 25 128 0 163 13 66 26 -58 7 -169 1
-292 -17 -61 -9 -76 -8 -90 4 -31 27 -101 57 -169 73 -128 30 -356 18 -368
-20 -15 -42 -61 -1053 -71 -1538 l-7 -326 44 -6 c211 -26 1824 -50 1899 -27
29 9 41 19 49 43 20 56 9 745 -20 1228 -13 231 -47 661 -52 667 -3 2 -96 9
-208 14 -112 6 -209 13 -215 14 -6 2 -14 34 -17 73 -9 87 -46 233 -86 339 -57
147 -122 223 -223 259 -63 22 -191 27 -268 9z m564 -761 c3 -26 3 -78 -1 -118
-5 -59 -11 -75 -34 -98 -33 -34 -71 -36 -117 -8 -48 29 -67 75 -52 129 21 77
93 137 171 140 24 1 27 -3 33 -45z m-805 -160 c14 -50 -3 -101 -42 -124 -71
-43 -147 -11 -147 62 0 35 6 47 38 78 22 20 54 41 73 47 29 9 36 8 51 -9 10
-11 22 -35 27 -54z"/>
<path d="M3550 3909 c-94 -38 -143 -182 -121 -359 12 -95 40 -154 89 -186 69
-47 170 -38 228 20 83 83 64 272 -32 312 -44 18 -126 18 -171 -1 -19 -8 -37
-15 -40 -15 -7 0 7 72 23 116 8 23 26 52 40 65 23 21 36 24 110 25 47 1 87 4
90 7 11 10 -71 27 -131 26 -33 0 -71 -5 -85 -10z m104 -241 c38 -17 57 -54 63
-119 4 -42 1 -72 -11 -104 -21 -53 -48 -75 -92 -75 -61 0 -100 78 -106 214 -3
57 -2 58 32 77 40 22 78 24 114 7z"/>
<path d="M3984 3901 c-74 -45 -104 -124 -104 -271 0 -119 19 -188 66 -240 64
-71 179 -76 255 -13 50 43 72 103 77 218 7 163 -21 251 -97 302 -45 30 -150
32 -197 4z m153 -26 c41 -29 58 -98 58 -240 0 -199 -29 -265 -114 -265 -80 0
-110 53 -118 209 -11 210 26 311 114 311 21 0 48 -7 60 -15z"/>
<path d="M4651 3903 c-52 -26 -73 -67 -68 -135 4 -72 21 -91 145 -165 51 -31
104 -69 117 -85 34 -40 33 -87 -1 -119 -22 -20 -36 -24 -89 -24 -90 0 -119 24
-164 135 -8 21 -10 15 -10 -38 -1 -55 2 -66 24 -86 32 -30 89 -46 164 -46 107
0 162 45 169 138 4 52 1 61 -23 90 -15 18 -70 59 -124 92 -112 69 -138 91
-147 126 -25 98 134 141 213 58 18 -19 35 -50 39 -69 10 -58 24 -50 24 13 0
48 -4 62 -23 80 -54 51 -177 69 -246 35z"/>
<path d="M5649 3892 c-60 -31 -111 -96 -130 -165 -6 -23 -9 -78 -7 -122 3 -65
10 -91 34 -135 116 -215 424 -164 475 78 13 67 7 161 -16 215 -22 52 -82 117
-130 138 -64 29 -160 25 -226 -9z m210 -31 c42 -30 68 -84 81 -168 20 -129
-17 -251 -90 -301 -29 -20 -44 -23 -93 -20 -49 4 -62 9 -92 38 -52 50 -70 108
-70 220 1 133 26 196 99 242 41 26 120 20 165 -11z"/>
<path d="M3005 3885 c-25 -25 -36 -95 -15 -95 6 0 10 7 10 15 0 9 11 27 25 40
22 23 31 25 127 25 l103 -1 -109 -102 c-83 -78 -108 -108 -103 -121 6 -15 15
-16 65 -10 90 10 147 -28 153 -101 5 -73 -1 -97 -35 -131 -30 -30 -40 -34 -85
-34 -59 0 -107 18 -135 48 -10 12 -23 19 -28 16 -14 -9 30 -53 77 -77 51 -26
155 -28 201 -4 69 36 103 106 90 185 -12 78 -88 132 -186 132 l-55 0 108 101
c146 138 146 139 -38 139 -142 0 -147 -1 -170 -25z"/>
<path d="M5022 3894 c-18 -12 -22 -24 -21 -67 l1 -52 15 35 c21 49 40 59 111
60 l62 0 0 -260 0 -260 40 0 40 0 0 260 0 260 95 0 c88 0 95 1 95 20 0 19 -7
20 -208 20 -172 0 -211 -3 -230 -16z"/>
<path d="M6080 3900 c0 -5 10 -10 23 -10 46 0 47 -9 47 -282 l0 -258 40 0 40
0 0 130 0 130 29 0 c27 0 35 -9 85 -94 30 -51 67 -107 81 -125 30 -35 90 -57
129 -47 27 7 36 26 12 26 -28 0 -76 52 -131 141 -30 49 -55 93 -55 98 0 5 14
12 30 16 41 9 88 58 96 100 16 88 -24 144 -121 169 -68 18 -305 23 -305 6z
m263 -34 c51 -22 78 -58 79 -105 1 -77 -55 -124 -140 -119 l-47 3 -3 112 c-2
100 -1 112 15 116 34 9 64 7 96 -7z"/>
<path d="M6580 3901 c0 -6 10 -11 23 -11 46 0 47 -9 47 -282 l0 -258 159 0
c179 0 186 2 214 76 19 50 11 65 -14 25 -32 -53 -62 -65 -176 -69 l-103 -4 0
121 0 121 115 0 c96 0 115 3 115 15 0 12 -19 15 -115 15 l-115 0 0 110 0 110
105 0 c99 0 107 -2 130 -25 14 -13 25 -33 25 -45 0 -11 5 -20 10 -20 15 0 12
84 -4 106 -13 17 -30 19 -215 22 -137 2 -201 0 -201 -7z"/>
<path d="M5376 3057 c-45 -45 -32 -80 47 -130 29 -19 58 -41 65 -50 19 -23 6
-56 -25 -63 -40 -10 -76 8 -95 46 l-17 35 -1 -32 c0 -42 37 -68 96 -68 53 0
84 26 84 70 0 35 -18 55 -92 100 -50 31 -63 54 -44 80 8 12 24 15 51 13 34 -3
43 -8 57 -38 l18 -35 0 31 c0 40 -19 55 -74 61 -38 5 -48 2 -70 -20z"/>
<path d="M3618 3063 c9 -3 12 -40 12 -134 0 -122 1 -129 20 -129 18 0 20 7 20
65 l0 65 45 0 c25 0 45 5 45 10 0 6 -20 10 -45 10 l-45 0 0 55 0 55 43 0 c47
0 58 -6 75 -35 9 -16 11 -17 12 -3 1 44 -8 48 -104 47 -50 0 -85 -3 -78 -6z"/>
<path d="M4308 3064 c9 -4 12 -41 12 -135 0 -122 1 -129 20 -129 18 0 20 7 20
78 0 80 9 102 41 102 32 0 49 -40 49 -112 0 -55 3 -68 15 -68 13 0 15 14 13
87 -3 83 -4 88 -30 102 -22 13 -33 13 -57 4 l-30 -11 -3 42 c-3 38 -5 41 -33
43 -16 1 -24 0 -17 -3z"/>
<path d="M4576 3052 c-2 -4 -1 -14 4 -21 11 -19 41 -6 34 14 -6 16 -29 20 -38
7z"/>
<path d="M5632 3048 c-7 -7 -12 -22 -12 -34 0 -13 -7 -24 -17 -27 -17 -4 -17
-5 0 -6 15 -1 17 -12 17 -79 0 -47 5 -83 12 -90 14 -14 74 -16 83 -3 3 6 -7 9
-22 8 l-28 -2 -3 82 -3 82 28 4 28 4 -27 2 c-25 1 -28 5 -28 36 0 37 -8 43
-28 23z"/>
<path d="M3888 2989 c-10 -5 -18 -17 -18 -24 0 -20 16 -19 24 0 3 9 18 15 36
15 24 0 33 -6 40 -26 15 -39 13 -41 -35 -46 -25 -3 -52 -11 -60 -18 -20 -16
-19 -54 1 -74 18 -18 75 -21 91 -5 8 8 13 8 17 0 17 -28 26 -5 26 69 0 67 -3
83 -20 100 -22 22 -73 26 -102 9z m92 -124 c0 -31 -36 -58 -62 -44 -34 19 -19
61 27 71 28 6 35 1 35 -27z"/>
<path d="M4122 2984 c-40 -28 -22 -81 34 -98 12 -4 30 -16 40 -27 18 -20 18
-21 -1 -35 -26 -19 -51 -18 -75 6 -19 19 -20 19 -20 1 0 -22 19 -31 66 -31 51
0 74 16 74 50 0 24 -8 33 -52 57 -37 19 -53 34 -53 48 0 31 57 33 84 4 12 -13
21 -17 21 -11 0 22 -40 52 -68 52 -15 0 -38 -7 -50 -16z"/>
<path d="M4729 2971 c-33 -34 -39 -83 -14 -130 16 -32 33 -41 75 -41 42 0 59
9 75 41 37 71 -4 159 -75 159 -22 0 -41 -9 -61 -29z m95 -13 c23 -33 21 -103
-4 -128 -11 -11 -24 -20 -30 -20 -5 0 -19 9 -30 20 -40 40 -17 150 30 150 10
0 26 -10 34 -22z"/>
<path d="M5037 2993 c-4 -3 -26 -6 -49 -5 -33 2 -39 -1 -30 -10 7 -7 12 -44
12 -95 0 -76 2 -83 20 -83 18 0 20 7 20 85 0 82 1 85 25 91 43 11 55 -10 55
-97 0 -72 2 -79 20 -79 18 0 20 7 20 80 0 67 -3 83 -20 100 -19 19 -60 27 -73
13z"/>
<path d="M5809 2971 c-24 -24 -29 -38 -29 -76 0 -121 157 -133 176 -13 11 64
-34 118 -97 118 -11 0 -34 -13 -50 -29z m90 -5 c19 -23 25 -83 11 -116 -29
-69 -90 -37 -90 48 0 67 47 107 79 68z"/>
<path d="M6100 2991 c-8 -6 -26 -7 -40 -5 l-25 6 3 -96 c3 -86 5 -96 22 -96
17 0 20 9 22 83 l3 82 35 2 c19 1 39 2 44 2 5 1 3 8 -4 16 -14 17 -38 19 -60
6z"/>
<path d="M6272 2993 c-21 -8 -42 -59 -42 -101 0 -55 31 -92 76 -92 38 0 74 15
74 30 0 5 -13 2 -29 -7 -27 -16 -30 -16 -55 0 -16 11 -26 27 -26 42 0 24 3 25
60 25 l60 0 0 30 c0 56 -63 95 -118 73z m66 -25 c7 -7 12 -22 12 -35 0 -20 -5
-23 -40 -23 -35 0 -40 3 -40 23 0 27 17 47 40 47 9 0 21 -5 28 -12z"/>
<path d="M4568 2984 c8 -4 12 -33 12 -95 0 -83 1 -89 20 -89 20 0 21 5 18 93
l-3 92 -30 2 c-16 1 -24 0 -17 -3z"/>
</g>
</svg>
